<svg xmlns="http://www.w3.org/2000/svg" width="35.745" height="36.917" viewBox="0 0 35.745 36.917"><defs><style>.a{fill:#c50021;}</style></defs><path class="a" d="M25.493,26.767a4.329,4.329,0,0,1-.188-.5c.691-3.9.063-8.545-.063-12.315,0-1.194-1.885-1.319-1.885-.126,0,2.639.377,5.781.314,8.671C19.209,12.441,11.858.565.234,0A.263.263,0,0,0,.108.5c5.969,2.765,11.059,5.843,15.08,11.121a59.013,59.013,0,0,1,7.1,12.755,49.912,49.912,0,0,0-8.105-4.273c-1.005-.44-1.759,1.131-.88,1.759C16.7,24,20.026,26.076,23.419,28.212a1.08,1.08,0,0,0,1.068,0A1.058,1.058,0,0,0,25.493,26.767Z" transform="matrix(0.891, 0.454, -0.454, 0.891, 12.914, 0.021)"/></svg>