<svg id="SVGDoc" width="8" height="8" xmlns="http://www.w3.org/2000/svg" version="1.1" xmlns:xlink="http://www.w3.org/1999/xlink" xmlns:avocode="https://avocode.com/" viewBox="0 0 8 8"><defs><path d="M1346.53696,179.95487c-1.11042,0 -2.01057,-0.90014 -2.01057,-2.01054c0,-1.11042 0.90017,-2.01057 2.01057,-2.01057c1.11036,0 2.01054,0.90017 2.01054,2.01057c0,1.11039 -0.90017,2.01054 -2.01054,2.01054zM1350.76152,181.28431l-1.6261,-1.62607c-0.00864,-0.00864 -0.01878,-0.01468 -0.02781,-0.02273c0.31996,-0.48536 0.50671,-1.06635 0.50671,-1.69114c0,-1.69961 -1.37779,-3.07739 -3.07736,-3.07739c-1.69957,0 -3.07736,1.37779 -3.07736,3.07736c0,1.69954 1.37776,3.07736 3.07733,3.07736c0.62483,0 1.20578,-0.18675 1.69114,-0.50671c0.00804,0.009 0.01405,0.01914 0.0227,0.02778l1.62613,1.62613c0.24428,0.24425 0.64032,0.24425 0.88462,0c0.24425,-0.24428 0.24425,-0.64032 0,-0.88459z" id="Path-0"/></defs><desc>Generated with Avocode.</desc><g transform="matrix(1,0,0,1,-1343,-175)"><g><title>Path 34</title><use xlink:href="#Path-0" fill="#fffbfb" fill-opacity="1"/></g></g></svg>