<svg xmlns="http://www.w3.org/2000/svg" width="19.219" height="17.894" viewBox="0 0 19.219 17.894"><defs><style>.a{fill:#fff;}</style></defs><g transform="translate(0 0)"><path class="a" d="M4.639,32.38V27.741a1.953,1.953,0,0,1,1.988-1.988h5.965V24.427H9.278A1.329,1.329,0,0,1,7.953,23.1V19.125H1.325A1.329,1.329,0,0,0,0,20.45V35.694a1.329,1.329,0,0,0,1.325,1.325h9.941a1.329,1.329,0,0,0,1.325-1.325V34.368H6.627A1.953,1.953,0,0,1,4.639,32.38Z" transform="translate(0 -19.125)"/><path class="a" d="M211.7,286.875h-1.325V288.2H211.7a.663.663,0,1,0,0-1.326Z" transform="translate(-203.085 -277.597)"/><path class="a" d="M249.288,23.764H252.6l-3.976-4.639V23.1A.664.664,0,0,0,249.288,23.764Z" transform="translate(-240.009 -19.125)"/><path class="a" d="M326.451,286.875h-1.326v3.314h1.326a.626.626,0,0,0,.663-.663v-1.988A.626.626,0,0,0,326.451,286.875Z" transform="translate(-313.858 -277.597)"/><path class="a" d="M165.592,229.5H154.325A1.329,1.329,0,0,0,153,230.825v4.639a1.329,1.329,0,0,0,1.325,1.326h11.267a1.329,1.329,0,0,0,1.325-1.326v-4.639A1.329,1.329,0,0,0,165.592,229.5Zm-9.278,3.976h-1.325v1.988h-.663v-4.639h1.988a1.325,1.325,0,0,1,0,2.651Zm5.3.663a1.329,1.329,0,0,1-1.325,1.325H158.3v-4.639h1.988a1.329,1.329,0,0,1,1.325,1.326Zm3.976-2.651h-2.651v1.325h1.988v.663h-1.988v1.988h-.663v-4.639h3.314Z" transform="translate(-147.698 -222.21)"/></g></svg>