<?xml version="1.0" encoding="utf-8"?>
<!-- Generator: Adobe Illustrator 23.0.2, SVG Export Plug-In . SVG Version: 6.00 Build 0)  -->
<svg version="1.1" id="Layer_1" xmlns="http://www.w3.org/2000/svg" xmlns:xlink="http://www.w3.org/1999/xlink" x="0px" y="0px"
	 viewBox="0 0 512 512" style="enable-background:new 0 0 512 512;" xml:space="preserve">
<style type="text/css">
	.st0{fill:#FFFFFF;}
	.st1{fill:#004995;}
</style>
<title>tooltip_tripsy</title>
<g>
	<g id="Capa_1">
		<rect x="125" y="70" class="st0" width="256" height="383.9"/>
		<path class="st1" d="M437,75C335.6-23.5,173.5-21.1,75,80.3c-96.5,99.3-96.5,257.4,0,356.7c101.4,98.5,263.5,96.1,362-5.3
			C533.5,332.4,533.5,174.3,437,75z M256,70c30.4,0,55,24.6,55,55s-24.6,55-55,55s-55-24.6-55-55C201,94.6,225.6,70,256,70z
			 M326,420H186v-30h30V240h-30v-30h110v180h30V420z"/>
	</g>
</g>
</svg>
